<svg xmlns="http://www.w3.org/2000/svg" viewBox="0 0 512 512">
  <defs>
    <linearGradient id="g" x1="0" y1="0" x2="1" y2="1">
      <stop offset="0%" stop-color="#FF6B35"/>
      <stop offset="60%" stop-color="#F7B538"/>
      <stop offset="100%" stop-color="#C73E1D"/>
    </linearGradient>
  </defs>
  <rect width="512" height="512" rx="112" fill="url(#g)"/>
  <g fill="#fff">
    <path d="M180 140c-22 0-40 18-40 40v40c0 18 12 33 28 38v94c0 12 10 22 22 22s22-10 22-22V258c16-5 28-20 28-38v-40c0-22-18-40-40-40h-20z"/>
    <path d="M340 140c-30 0-54 24-54 54v50c0 18 11 33 26 39l-18 91c-2 11 4 21 14 23 11 2 22-5 24-16l18-87h0c14 0 24-11 24-24V194c0-30-4-54-34-54z" opacity=".95"/>
  </g>
</svg>
